<?xml version="1.0" encoding="UTF-8"?>
<!DOCTYPE svg PUBLIC "-//W3C//DTD SVG 1.1//EN" "http://www.w3.org/Graphics/SVG/1.1/DTD/svg11.dtd">
<!-- Creator: CorelDRAW 2017 -->
<svg xmlns="http://www.w3.org/2000/svg" xml:space="preserve" width="11in" height="8.5in" version="1.1" style="shape-rendering:geometricPrecision; text-rendering:geometricPrecision; image-rendering:optimizeQuality; fill-rule:evenodd; clip-rule:evenodd"
viewBox="0 0 11000 8500"
 xmlns:xlink="http://www.w3.org/1999/xlink">
 <defs>
  <style type="text/css">
   <![CDATA[
    .str0 {stroke:#FEFEFE;stroke-width:20.83;stroke-linecap:round;stroke-linejoin:round;stroke-miterlimit:10}
    .fil6 {fill:none;fill-rule:nonzero}
    .fil5 {fill:#ED3237}
    .fil2 {fill:#373435;fill-rule:nonzero}
    .fil0 {fill:#ED3237;fill-rule:nonzero}
    .fil3 {fill:black;fill-rule:nonzero}
    .fil1 {fill:#FAB03A;fill-rule:nonzero}
    .fil4 {fill:#FBAF3B;fill-rule:nonzero}
   ]]>
  </style>
 </defs>
 <g id="Layer_x0020_1">
  <metadata id="CorelCorpID_0Corel-Layer"/>
  <path class="fil0" d="M6870.4 5017.92l-69.21 0c-0.39,2.18 -0.59,4.99 -0.59,8.25 0,6.26 0,16.05 0,29.28 0.39,12.78 0.59,22.48 0.59,28.92 0,6.44 0.59,10.52 1.78,12.42 1.18,1.81 5.03,2.72 11.34,2.72l56.1 0 0 -81.59zm63.3 297.92l-63.3 10 0 -148.54 -68.92 0c-27.31,0 -45.35,-6.35 -54.13,-19.04 -6.71,-9.88 -10.06,-28.01 -10.06,-54.57l0 -163.55 196.4 0 0 375.7z"/>
  <polygon class="fil1" points="6625.9,5177.3 6562.6,5177.3 6562.6,4961.89 6625.9,4961.89 "/>
  <polygon class="fil2" points="6644.24,4940.68 6544.86,4940.68 6596.32,4859.63 "/>
  <polygon class="fil1" points="6453.57,5177.3 6390.27,5177.3 6390.27,5017.92 6313.96,5017.92 6313.96,5177.3 6250.67,5177.3 6250.67,4940.13 6453.57,4940.13 "/>
  <path class="fil1" d="M6070.05 5099.51l0 -81.59 -75.72 0 0 81.59 75.72 0zm63.3 77.79l-202.31 0 0 -237.17 202.31 0 0 237.17z"/>
  <polygon class="fil1" points="5814.31,5177.3 5751.02,5177.3 5751.02,5017.92 5693.04,5017.92 5693.04,5177.3 5629.75,5177.3 5629.75,5017.92 5571.78,5017.92 5571.78,5177.3 5508.48,5177.3 5508.48,4940.13 5814.31,4940.13 "/>
  <polygon class="fil1" points="5401.22,5017.92 5318.4,5017.92 5318.4,5177.3 5255.1,5177.3 5255.1,4940.13 5401.22,4940.13 "/>
  <path class="fil1" d="M5084.55 5104.95l0 -23.39 -71.58 0c0,0.72 -0.2,2.26 -0.59,4.44 0,2.27 0,3.9 0,4.99 0,9.34 2.17,13.96 6.61,13.96l65.56 0zm63.3 72.35l-133.1 0c-27.22,0 -45.16,-6.26 -53.84,-18.86 -6.7,-9.43 -10.05,-27.2 -10.05,-53.49l0 -71.8 133.69 0 0 -20.67 -133.69 0 0 -72.35 196.99 0 0 237.17z"/>
  <polygon class="fil3" points="6933.69,4680.54 4489.25,4680.54 4489.25,4541.65 6933.69,4541.65 "/>
  <polygon class="fil4" points="4836.47,4458.32 4489.25,4458.32 4489.25,4319.43 4836.47,4319.43 "/>
  <polygon class="fil4" points="5253.14,4458.32 4905.92,4458.32 4905.92,4319.43 5253.14,4319.43 "/>
  <polygon class="fil0" points="5669.8,4458.32 5322.59,4458.32 5322.59,4319.43 5669.8,4319.43 "/>
  <polygon class="fil0" points="6086.47,4458.32 5753.14,4458.32 5753.14,4319.43 6086.47,4319.43 "/>
  <polygon class="fil4" points="6503.14,4458.32 6169.8,4458.32 6169.8,4319.43 6503.14,4319.43 "/>
  <polygon class="fil4" points="6933.69,4458.32 6586.47,4458.32 6586.47,4319.43 6933.69,4319.43 "/>
  <polygon class="fil4" points="4836.47,4249.98 4489.25,4249.98 4489.25,4111.1 4836.47,4111.1 "/>
  <polygon class="fil4" points="5253.14,4249.98 4905.92,4249.98 4905.92,4111.1 5253.14,4111.1 "/>
  <polygon class="fil0" points="5669.8,4249.98 5322.59,4249.98 5322.59,4111.1 5669.8,4111.1 "/>
  <polygon class="fil0" points="6086.47,4249.98 5753.14,4249.98 5753.14,4111.1 6086.47,4111.1 "/>
  <polygon class="fil4" points="6503.14,4249.98 6169.8,4249.98 6169.8,4111.1 6503.14,4111.1 "/>
  <polygon class="fil4" points="6933.69,4249.98 6586.47,4249.98 6586.47,4111.1 6933.69,4111.1 "/>
  <polygon class="fil4" points="4836.47,4027.77 4489.25,4027.77 4489.25,3902.77 4836.47,3902.77 "/>
  <polygon class="fil3" points="4836.47,3611.1 4489.25,3611.1 4489.25,3486.1 4836.47,3486.1 "/>
  <polygon class="fil4" points="4836.47,3819.43 4489.25,3819.43 4489.25,3694.43 4836.47,3694.43 "/>
  <polygon class="fil4" points="5253.14,4027.77 4905.92,4027.77 4905.92,3902.77 5253.14,3902.77 "/>
  <polygon class="fil2" points="5669.8,4027.77 5322.59,4027.77 5322.59,3902.77 5669.8,3902.77 "/>
  <polygon class="fil2" points="6086.47,4027.77 5753.14,4027.77 5753.14,3902.77 6086.47,3902.77 "/>
  <polygon class="fil4" points="6503.14,4027.77 6169.8,4027.77 6169.8,3902.77 6503.14,3902.77 "/>
  <polygon class="fil4" points="6933.69,4027.77 6586.47,4027.77 6586.47,3902.77 6933.69,3902.77 "/>
  <polygon class="fil3" points="5253.14,3819.43 4905.92,3819.43 4905.92,3694.43 5253.14,3694.43 "/>
  <polygon class="fil0" points="5669.8,3819.43 5322.59,3819.43 5322.59,3694.43 5669.8,3694.43 "/>
  <polygon class="fil0" points="6086.47,3819.43 5753.14,3819.43 5753.14,3694.43 6086.47,3694.43 "/>
  <polygon class="fil3" points="6503.14,3819.43 6169.8,3819.43 6169.8,3694.43 6503.14,3694.43 "/>
  <polygon class="fil4" points="6933.69,3819.43 6586.47,3819.43 6586.47,3694.43 6933.69,3694.43 "/>
  <polygon class="fil0" points="5669.8,3611.1 5322.59,3611.1 5322.59,3486.1 5669.8,3486.1 "/>
  <polygon class="fil3" points="6086.47,3611.1 5753.14,3611.1 5753.14,3486.1 6086.47,3486.1 "/>
  <polygon class="fil3" points="6933.69,3611.1 6586.47,3611.1 6586.47,3486.1 6933.69,3486.1 "/>
  <polygon class="fil3" points="5669.8,3402.77 5322.59,3402.77 5322.59,3277.77 5669.8,3277.77 "/>
  <polygon class="fil5" points="5322.59,3486.1 5669.8,3486.1 5669.8,4458.32 5322.59,4458.32 "/>
  <polygon class="fil5" points="5747.99,3694.44 6086.47,3694.44 6086.47,4458.32 5747.99,4458.32 "/>
  <polyline class="fil6 str0" points="5322.59,4064.08 5431.69,4061.37 5465.33,3786.94 5577.11,4264.26 5634.36,3894.93 5705.24,4160.61 5751.6,3951.18 5792.5,4047.61 5838.84,3869.2 5877.02,4234.5 5896.1,3992.52 5932.46,4061.37 6110.87,4061.37 "/>
  <polygon class="fil5" points="4506.05,4839.18 4610.65,4839.18 4610.65,4926.7 4713.85,4926.7 4713.85,4770.15 4827.48,4770.15 4827.48,5313.92 4713.85,5330.27 4713.85,5010.88 4610.65,5010.88 4610.65,5231.75 4506.05,5195.08 "/>
 </g>
</svg>
